<svg xmlns="http://www.w3.org/2000/svg" viewBox="0 0 50 50" style="enable-background:new 0 0 50 50" xml:space="preserve" aria-hidden="true" width="32" height="32" fill="#cbd5e1"><path d="M49.6 33.2 40.5 45l-10 5H.5v-3.1h29.3l8.7-4.4 6.4-8.3c-2.6-.8-5.5.1-7.2 2.2l-1.9 2.4-8.5 3.4H19c-1.1 0-2.2-.6-2.7-1.6-.8-1.5-.3-3.4 1.2-4.2l5.3-2.9s.1 0 .1-.1c1-.6 1.3-1.8.9-2.8-.5-1.1-1.9-1.6-3-1.1l-6.9 3.2L9 37.6H.4v-3.1h7.2L12 30l1.3-.6c-5-4.9-6.4-12.3-3.8-18.8C13.2 1.8 23.2-2.3 32 1.3l-1.2 2.9c-5.7-2.3-12.2-.7-16.1 3.9-5 5.9-4.2 14.8 1.7 19.8l3-1.4c2.5-1.1 5.4-.3 6.8 2 .5.8.7 1.7.8 2.6.3 0 .6-.1 1-.1 7.6-1.4 12.7-8.7 11.3-16.3l3.1-.6c.2 1 .3 2 .3 3.1 0 9.2-7.3 16.8-16.5 17.2-.5.7-1.1 1.4-1.9 1.8L19 39.1h7.7l7.1-2.9 1.4-1.7c3.1-3.9 8.7-4.8 12.9-2.2l1.5.9zM38.5 12l2.9-1.1c-.4-1.1-1-2.1-1.6-3l-2.6 1.7c.5.7.9 1.5 1.3 2.4zm-.8-6.9c-.9-.8-1.7-1.5-2.7-2.2l-1.7 2.6c.8.5 1.5 1.1 2.2 1.8l2.2-2.2zM25.5 21.9s-.1 0 0 0h-4.8V25h4.7c2.6 0 4.7-2 4.8-4.6 0-2.6-2-4.7-4.6-4.8h-.1c-.9 0-1.6-.7-1.6-1.5 0-.9.7-1.6 1.5-1.6h4.8V9.4H27V6.3h-3.1v3.4c-2.4.9-3.7 3.5-2.9 6 .7 1.9 2.4 3.1 4.4 3.1.9 0 1.6.7 1.6 1.5s-.6 1.6-1.5 1.6z"></path></svg>