<svg xmlns="http://www.w3.org/2000/svg" viewBox="0 0 50 50" style="enable-background:new 0 0 50 50" xml:space="preserve" aria-hidden="true" width="32" height="32" fill="#cbd5e1"><path d="M22.7 32c0 1.1-.9 2-2 2H5.9C2.6 33.9 0 31.3 0 28V8.5c0-3.2 2.6-5.9 5.9-5.9h34.4c3.2 0 5.9 2.6 5.9 5.9v5.2c0 1.1-.9 2-2 2s-2-.9-2-2V8.5c0-1.1-.9-2-2-2H5.9c-1.1 0-2 .9-2 2V28c0 1.1.9 2 2 2h14.8c1.1 0 2 .9 2 2zM50 32v13.4c0 1.1-.9 2-2 2H28.5c-1.1 0-2-.9-2-2V32c0-1.1.9-2 2-2h2v-3.9c0-4.3 3.5-7.8 7.8-7.8s7.8 3.5 7.8 7.8V30h2c1 0 1.9.9 1.9 2zm-15.6-2h7.8v-3.9c0-2.2-1.7-3.9-3.9-3.9s-3.9 1.7-3.9 3.9V30zm11.7 13.4v-9.5H30.5v9.5h15.6zM17.6 10.5c1.1 0 2 .9 2 2v7.8c0 1.1-.9 2-2 2H9.8c-1.1 0-2-.9-2-2v-7.8c0-1.1.9-2 2-2h7.8zm-2 7.8v-3.9h-3.9v3.9h3.9z"></path></svg>