<svg xmlns="http://www.w3.org/2000/svg" viewBox="0 0 50 50" style="enable-background:new 0 0 50 50" xml:space="preserve" aria-hidden="true" width="32" height="32" fill="#cbd5e1"><path d="M50 25c0 5.6-1.9 11.1-5.4 15.5C36 51.3 20.3 53.2 9.5 44.6S-3.2 20.3 5.4 9.5 29.7-3.2 40.5 5.4c.9.7 1.1 2 .3 2.9-.7.9-2 1.1-2.9.3-3.6-2.9-8.2-4.4-12.9-4.4C13.5 4.2 4.2 13.5 4.2 25S13.5 45.8 25 45.8 45.8 36.5 45.8 25c0-3.1-.7-6.2-2.1-9.1-.5-1-.1-2.3 1-2.8 1-.5 2.3-.1 2.8 1C49.2 17.5 50 21.2 50 25zM25 8.3c-1.2 0-2.1.9-2.1 2.1V25c0 1.2.9 2.1 2.1 2.1h10.4c1.2 0 2.1-.9 2.1-2.1 0-1.2-.9-2.1-2.1-2.1h-8.3V10.4c0-1.1-.9-2.1-2.1-2.1z"></path></svg>